<svg width="16" height="15" viewBox="0 0 16 15" fill="none" xmlns="http://www.w3.org/2000/svg">
<path d="M1 0.5H15C15.2761 0.5 15.5 0.723858 15.5 1V14C15.5 14.2761 15.2761 14.5 15 14.5H1C0.723858 14.5 0.5 14.2761 0.5 14V1C0.5 0.723858 0.723858 0.5 1 0.5Z" stroke="white"/>
<line y1="2.71428" x2="16" y2="2.71428" stroke="white"/>
<path d="M3.15884 9.81305C2.97042 10.0149 2.97042 10.3422 3.15884 10.5441C3.34726 10.746 3.65274 10.746 3.84116 10.5441L3.15884 9.81305ZM6 7.5L6.36632 7.16359C6.27886 7.05426 6.15281 6.98898 6.01851 6.98345C5.88422 6.97792 5.75387 7.03266 5.65884 7.13448L6 7.5ZM9 11.25L8.63368 11.5864L8.99624 12.0396L9.3631 11.5904L9 11.25ZM12.8631 7.30469C13.0386 7.08984 13.0182 6.76326 12.8177 6.57526C12.6172 6.38726 12.3124 6.40903 12.1369 6.62389L12.8631 7.30469ZM3.84116 10.5441L6.34116 7.86553L5.65884 7.13448L3.15884 9.81305L3.84116 10.5441ZM5.63368 7.83642L8.63368 11.5864L9.36632 10.9136L6.36632 7.16359L5.63368 7.83642ZM9.3631 11.5904L12.8631 7.30469L12.1369 6.62389L8.6369 10.9096L9.3631 11.5904Z" fill="white"/>
</svg>
