<svg width="24" height="24" viewBox="0 0 24 24" fill="none" xmlns="http://www.w3.org/2000/svg">
<path fill-rule="evenodd" clip-rule="evenodd" d="M12 20C16.4183 20 20 16.4183 20 12C20 7.58172 16.4183 4 12 4C7.58172 4 4 7.58172 4 12C4 16.4183 7.58172 20 12 20ZM12 24C18.6274 24 24 18.6274 24 12C24 5.37258 18.6274 0 12 0C5.37258 0 0 5.37258 0 12C0 18.6274 5.37258 24 12 24Z" fill="white" fill-opacity="0.18"/>
<path fill-rule="evenodd" clip-rule="evenodd" d="M16 0.686289C14.7205 0.233951 13.3683 0 12 0V3.93696C13.4442 3.93696 14.862 4.32489 16.1051 5.06021C17.3482 5.79553 18.3709 6.85124 19.0664 8.117C19.762 9.38277 20.1047 10.8121 20.059 12.2557C20.0132 13.6992 19.5805 15.104 18.8061 16.3231C18.0317 17.5422 16.9441 18.531 15.657 19.186C14.3698 19.8411 12.9303 20.1384 11.4889 20.0468C10.0475 19.9553 8.65722 19.4783 7.46325 18.6656C6.26928 17.853 5.3155 16.7346 4.7016 15.4273L1.138 17.1007C1.71961 18.3393 2.50618 19.4639 3.45945 20.4297C4.0037 20.9811 4.60229 21.4807 5.24809 21.9203C7.02504 23.1297 9.09422 23.8396 11.2394 23.9759C13.3845 24.1121 15.5269 23.6697 17.4426 22.6948C19.3582 21.7199 20.9769 20.2483 22.1294 18.4339C23.2818 16.6195 23.9258 14.5289 23.9939 12.3805C24.0621 10.2321 23.5519 8.10484 22.5168 6.22104C21.4817 4.33724 19.9595 2.76605 18.1095 1.6717C17.4371 1.27398 16.7304 0.944541 16 0.686289Z" fill="white"/>
</svg>
