<svg width="31" height="33" viewBox="0 0 31 33" fill="none" xmlns="http://www.w3.org/2000/svg">
<path d="M15.5001 11.0237C14.5421 11.0237 13.6056 11.3176 12.8091 11.8682C12.0125 12.4188 11.3917 13.2013 11.0251 14.1169C10.6585 15.0325 10.5625 16.04 10.7494 17.012C10.9363 17.984 11.3977 18.8769 12.0751 19.5776C12.7525 20.2784 13.6156 20.7556 14.5551 20.949C15.4947 21.1423 16.4687 21.0431 17.3537 20.6638C18.2388 20.2846 18.9953 19.6423 19.5275 18.8183C20.0598 17.9943 20.3439 17.0255 20.3439 16.0345C20.3423 14.706 19.8315 13.4324 18.9235 12.4931C18.0154 11.5537 16.7843 11.0253 15.5001 11.0237ZM15.5001 19.0409C14.9253 19.0409 14.3634 18.8646 13.8855 18.5343C13.4076 18.2039 13.0351 17.7344 12.8151 17.185C12.5951 16.6356 12.5376 16.0311 12.6497 15.448C12.7619 14.8648 13.0386 14.3291 13.4451 13.9086C13.8515 13.4881 14.3694 13.2018 14.9331 13.0858C15.4969 12.9698 16.0812 13.0293 16.6123 13.2569C17.1433 13.4844 17.5972 13.8698 17.9166 14.3642C18.2359 14.8586 18.4064 15.4399 18.4064 16.0345C18.4055 16.8316 18.099 17.5958 17.5542 18.1594C17.0094 18.723 16.2706 19.0401 15.5001 19.0409Z" fill="white"/>
<path d="M6.07745 9.80376C5.60109 9.61862 5.0738 9.63244 4.60711 9.84228C4.14043 10.0521 3.77095 10.4415 3.57685 10.9282C3.38274 11.4148 3.37923 11.9604 3.56705 12.4496C3.75488 12.9389 4.11931 13.3334 4.58325 13.5496C5.05523 13.7561 5.45793 14.1019 5.74105 14.5438C6.02417 14.9857 6.17516 15.5041 6.17516 16.0342C6.17516 16.5643 6.02417 17.0827 5.74105 17.5246C5.45793 17.9665 5.05523 18.3123 4.58325 18.5188C4.1192 18.7351 3.75468 19.1296 3.56683 19.6189C3.37898 20.1083 3.38253 20.654 3.57674 21.1407C3.77095 21.6274 4.14058 22.0168 4.60741 22.2266C5.07424 22.4364 5.60164 22.45 6.07803 22.2647C6.55341 22.0644 7.07535 22.0137 7.57846 22.1189C8.08158 22.2241 8.5435 22.4805 8.90636 22.8561C9.26923 23.2316 9.5169 23.7096 9.61835 24.2301C9.7198 24.7506 9.67053 25.2906 9.4767 25.7822C9.29193 26.2763 9.3034 26.826 9.50861 27.3113C9.71381 27.7967 10.0961 28.1786 10.5723 28.3737C10.8107 28.4758 11.0662 28.5283 11.3243 28.5283C11.7013 28.5311 12.0707 28.4186 12.3862 28.2051C12.7016 27.9915 12.9492 27.6864 13.0977 27.3279C13.2973 26.8397 13.6316 26.4231 14.0587 26.1302C14.4859 25.8373 14.987 25.6811 15.4995 25.6811C16.0119 25.6811 16.513 25.8373 16.9402 26.1302C17.3673 26.4231 17.7016 26.8397 17.9012 27.3279C18.1103 27.808 18.4917 28.1851 18.9647 28.3794C19.4377 28.5737 19.9653 28.5701 20.4358 28.3692C20.9062 28.1683 21.2827 27.7859 21.4854 27.303C21.6882 26.82 21.7014 26.2744 21.5222 25.7816C21.3286 25.2899 21.2796 24.7499 21.3813 24.2295C21.483 23.709 21.7309 23.2311 22.0939 22.8558C22.457 22.4804 22.919 22.2242 23.4222 22.1192C23.9253 22.0143 24.4473 22.0652 24.9225 22.2658C25.3972 22.4564 25.9253 22.4462 26.3927 22.2373C26.8601 22.0285 27.2293 21.6377 27.4206 21.1496L26.5322 20.7503L25.6507 20.4088C24.8227 20.0588 23.9132 19.97 23.0365 20.1533C22.1599 20.3367 21.3552 20.7841 20.7237 21.4393C20.0927 22.0973 19.6591 22.9302 19.4753 23.8374C19.2915 24.7446 19.3652 25.6875 19.6877 26.5523C19.3422 25.6988 18.7601 24.9702 18.0148 24.4584C17.2696 23.9466 16.3946 23.6745 15.5001 23.6764C14.6036 23.6793 13.7272 23.9509 12.9769 24.4583C12.2265 24.9657 11.6344 25.6872 11.2722 26.5355C11.6102 25.679 11.696 24.7382 11.5188 23.8314C11.3415 22.9245 10.9092 22.0921 10.276 21.4387C9.63983 20.786 8.83475 20.3375 7.9578 20.1474C7.08085 19.9572 6.16945 20.0335 5.33345 20.367C6.15848 20.0094 6.8627 19.4071 7.35734 18.6361C7.85197 17.8651 8.11487 16.9598 8.11289 16.0345C8.11011 15.1071 7.84758 14.2004 7.35706 13.4242C6.86655 12.648 6.16907 12.0355 5.34905 11.6608C6.17701 12.0107 7.0865 12.0995 7.96315 11.9162C8.8398 11.7328 9.64448 11.2854 10.276 10.6302C10.9071 9.97218 11.3406 9.13933 11.5244 8.23212C11.7083 7.32491 11.6345 6.38206 11.312 5.51724C11.6577 6.37072 12.2399 7.09923 12.9852 7.61092C13.7305 8.12261 14.6056 8.39457 15.5001 8.39253C16.3966 8.38965 17.273 8.11807 18.0233 7.61064C18.7737 7.1032 19.3658 6.38168 19.728 5.53338C19.39 6.38993 19.3042 7.33073 19.4814 8.23756C19.6587 9.14439 20.091 9.97682 20.7242 10.6302C21.3605 11.2827 22.1656 11.731 23.0425 11.9211C23.9194 12.1113 24.8307 12.0351 25.6667 11.7019C24.8457 12.0588 24.1443 12.6577 23.6501 13.4241C23.1558 14.1905 22.8906 15.0904 22.8873 16.0116C22.8841 16.9329 23.1431 17.8348 23.6319 18.6048C24.1208 19.3749 24.818 19.9791 25.6365 20.342C25.6392 20.3503 25.6392 20.3592 25.6365 20.3675L26.5319 20.7497L27.4221 21.1446L27.4273 21.1318C27.6251 20.6465 27.6299 20.1001 27.4408 19.6111C27.2516 19.1221 26.8838 18.73 26.4169 18.5198C25.945 18.3133 25.5423 17.9675 25.2591 17.5256C24.976 17.0837 24.825 16.5653 24.825 16.0352C24.825 15.5051 24.976 14.9867 25.2591 14.5448C25.5423 14.1029 25.945 13.7571 26.4169 13.5506C26.881 13.3344 27.2455 12.9398 27.4334 12.4505C27.6212 11.9611 27.6177 11.4154 27.4234 10.9287C27.2292 10.442 26.8596 10.0526 26.3928 9.84283C25.926 9.63306 25.3985 9.61941 24.9222 9.80476C24.4468 10.005 23.9248 10.0558 23.4217 9.95055C22.9186 9.84535 22.4567 9.5889 22.0938 9.21335C21.731 8.83779 21.4833 8.35981 21.3818 7.8393C21.2804 7.31878 21.3297 6.77887 21.5235 6.2872C21.7026 5.79441 21.6894 5.24886 21.4866 4.76599C21.2838 4.28312 20.9073 3.90081 20.4369 3.69995C19.9665 3.49909 19.4389 3.49544 18.966 3.68977C18.493 3.88409 18.1116 4.26116 17.9026 4.74117C17.703 5.22943 17.3687 5.64601 16.9415 5.9389C16.5144 6.23178 16.0133 6.38797 15.5008 6.38797C14.9884 6.38797 14.4873 6.23178 14.0601 5.9389C13.6329 5.64601 13.2987 5.22943 13.099 4.74117C12.89 4.26112 12.5086 3.88403 12.0356 3.6897C11.5625 3.49537 11.035 3.49905 10.5645 3.69996C10.0941 3.90086 9.71762 4.28323 9.51485 4.76616C9.31207 5.24909 9.29888 5.79468 9.47805 6.2875C9.67165 6.77927 9.72068 7.31921 9.61898 7.83967C9.51728 8.36013 9.26939 8.83798 8.90635 9.21336C8.54331 9.58874 8.08127 9.84495 7.5781 9.9499C7.07494 10.0548 6.55303 10.0039 6.07774 9.80336L6.07745 9.80376Z" fill="white"/>
</svg>
