<svg width="16" height="16" viewBox="0 0 16 16" fill="none" xmlns="http://www.w3.org/2000/svg">
<path d="M1.79022 4.11419C1.49314 3.99872 1.16429 4.00734 0.873238 4.13821C0.582187 4.26908 0.351761 4.51194 0.230705 4.81542C0.10965 5.1189 0.107459 5.45919 0.224597 5.76431C0.341735 6.06943 0.569014 6.31544 0.858355 6.45031C1.15271 6.57911 1.40385 6.79476 1.58042 7.07035C1.75699 7.34593 1.85116 7.66922 1.85116 7.99984C1.85116 8.33046 1.75699 8.65376 1.58042 8.92934C1.40385 9.20492 1.15271 9.42058 0.858355 9.54937C0.568945 9.68424 0.341611 9.9303 0.224457 10.2355C0.107303 10.5407 0.109521 10.881 0.230641 11.1845C0.35176 11.4881 0.58228 11.7309 0.873421 11.8618C1.16456 11.9926 1.49348 12.0011 1.79058 11.8855C2.08706 11.7606 2.41257 11.729 2.72634 11.7946C3.04011 11.8602 3.32819 12.0201 3.55449 12.2543C3.78079 12.4886 3.93525 12.7866 3.99853 13.1113C4.0618 13.4359 4.03107 13.7726 3.91018 14.0792C3.79495 14.3874 3.80211 14.7302 3.93008 15.0329C4.05806 15.3356 4.29649 15.5738 4.59344 15.6954C4.74214 15.7591 4.90151 15.7919 5.06245 15.7919C5.29757 15.7936 5.52794 15.7235 5.72469 15.5903C5.92143 15.4571 6.0758 15.2668 6.16844 15.0432C6.29294 14.7387 6.50141 14.4789 6.7678 14.2963C7.0342 14.1136 7.34672 14.0162 7.66632 14.0162C7.98592 14.0162 8.29843 14.1136 8.56483 14.2963C8.83123 14.4789 9.0397 14.7387 9.1642 15.0432C9.29457 15.3426 9.53243 15.5778 9.82744 15.699C10.1224 15.8202 10.4515 15.8179 10.7449 15.6926C11.0383 15.5673 11.273 15.3288 11.3995 15.0277C11.526 14.7265 11.5342 14.3862 11.4225 14.0789C11.3017 13.7722 11.2711 13.4354 11.3346 13.1109C11.398 12.7863 11.5526 12.4882 11.779 12.2541C12.0054 12.02 12.2936 11.8603 12.6074 11.7948C12.9212 11.7293 13.2467 11.7611 13.5431 11.8862C13.8391 12.0051 14.1684 11.9987 14.46 11.8684C14.7515 11.7382 14.9817 11.4945 15.101 11.1901L14.547 10.9411L13.9972 10.7281C13.4808 10.5098 12.9136 10.4544 12.3669 10.5688C11.8201 10.6831 11.3183 10.9621 10.9244 11.3707C10.5309 11.7812 10.2605 12.3006 10.1459 12.8663C10.0312 13.4321 10.0772 14.0202 10.2783 14.5595C10.0628 14.0272 9.69982 13.5728 9.23505 13.2536C8.77028 12.9344 8.22457 12.7648 7.66671 12.7659C7.10763 12.7677 6.56104 12.9371 6.09307 13.2536C5.62511 13.57 5.25584 14.02 5.02995 14.5491C5.24076 14.0149 5.29426 13.4281 5.18373 12.8626C5.07319 12.297 4.80355 11.7779 4.40868 11.3704C4.01192 10.9633 3.50983 10.6836 2.96291 10.565C2.416 10.4464 1.8476 10.494 1.32622 10.702C1.84076 10.479 2.27995 10.1034 2.58843 9.62253C2.89691 9.14167 3.06087 8.57711 3.05964 8C3.0579 7.42164 2.89417 6.8562 2.58826 6.3721C2.28235 5.888 1.84736 5.50599 1.33595 5.27231C1.85232 5.49053 2.41952 5.54595 2.96625 5.43159C3.51298 5.31724 4.01482 5.03822 4.40868 4.62962C4.80223 4.21922 5.07263 3.69981 5.18727 3.13402C5.3019 2.56824 5.25589 1.98022 5.05478 1.44087C5.27036 1.97315 5.63344 2.42749 6.09827 2.74661C6.56309 3.06573 7.10884 3.23534 7.66671 3.23406C8.22579 3.23227 8.77238 3.06289 9.24035 2.74643C9.70831 2.42997 10.0776 1.97999 10.3035 1.45094C10.0927 1.98513 10.0392 2.57186 10.1497 3.13742C10.2602 3.70297 10.5299 4.22211 10.9247 4.62962C11.3216 5.03654 11.8237 5.31611 12.3706 5.43469C12.9174 5.55327 13.4858 5.5058 14.0072 5.298C13.4951 5.52054 13.0577 5.89407 12.7495 6.37202C12.4412 6.84997 12.2758 7.41121 12.2738 7.98576C12.2718 8.56032 12.4333 9.12278 12.7382 9.60303C13.0431 10.0833 13.4779 10.4601 13.9883 10.6864C13.99 10.6916 13.99 10.6972 13.9883 10.7023L14.5468 10.9407L15.1019 11.1869L15.1052 11.179C15.2286 10.8763 15.2316 10.5356 15.1136 10.2306C14.9956 9.92564 14.7662 9.68109 14.4751 9.55C14.1807 9.4212 13.9296 9.20555 13.753 8.92996C13.5764 8.65438 13.4823 8.33109 13.4823 8.00047C13.4823 7.66985 13.5764 7.34655 13.753 7.07097C13.9296 6.79539 14.1807 6.57973 14.4751 6.45094C14.7645 6.31607 14.9918 6.07001 15.109 5.76483C15.2261 5.45964 15.2239 5.11928 15.1028 4.81576C14.9817 4.51224 14.7511 4.26937 14.46 4.13855C14.1689 4.00773 13.8399 3.99922 13.5428 4.11481C13.2464 4.23972 12.9209 4.27134 12.6071 4.20573C12.2933 4.14012 12.0052 3.98019 11.7789 3.74597C11.5526 3.51175 11.3982 3.21366 11.3349 2.88904C11.2716 2.56442 11.3024 2.2277 11.4232 1.92106C11.5349 1.61373 11.5267 1.2735 11.4002 0.972353C11.2737 0.67121 11.039 0.43278 10.7456 0.307512C10.4522 0.182244 10.1232 0.179966 9.82822 0.301159C9.53324 0.422352 9.29541 0.657509 9.16504 0.956874C9.04054 1.26138 8.83207 1.52118 8.56568 1.70384C8.29928 1.8865 7.98676 1.98391 7.66716 1.98391C7.34756 1.98391 7.03505 1.8865 6.76865 1.70384C6.50225 1.52118 6.29378 1.26138 6.16928 0.956874C6.03891 0.657484 5.80105 0.422311 5.50604 0.301117C5.21103 0.179923 4.88202 0.182217 4.58861 0.307514C4.29521 0.43281 4.06044 0.671279 3.93398 0.972459C3.80751 1.27364 3.79929 1.6139 3.91103 1.92125C4.03177 2.22795 4.06234 2.56468 3.99892 2.88927C3.93549 3.21386 3.78089 3.51187 3.55448 3.74598C3.32807 3.98008 3.03992 4.13987 2.72611 4.20533C2.41231 4.27078 2.08682 4.23899 1.7904 4.11394L1.79022 4.11419Z" fill="white"/>
</svg>
